<svg width="158" height="32" viewBox="0 0 158 32" fill="none" xmlns="http://www.w3.org/2000/svg">
<g clip-path="url(#clip0_8638_22731)">
<path d="M4.29283 14.7358H3.29376V22.4285H4.29283V14.7358Z" fill="black"/>
<path d="M5.20385 22.0318C5.20385 22.8043 4.57222 23.4296 3.79179 23.4296C3.01136 23.4296 2.37973 22.8043 2.37973 22.0318C2.37973 21.2592 3.01136 20.6339 3.79179 20.6339C4.57222 20.6339 5.20385 21.2592 5.20385 22.0318Z" fill="black"/>
<path d="M22.182 0.0210909L8.76286 3.29775C8.21322 3.43302 7.74253 3.78474 7.46012 4.27173L0.597194 16.1489C0.284414 16.6869 0.779395 17.3333 1.38673 17.186L6.58251 15.9174C6.88011 15.8452 7.00461 15.4965 6.81937 15.256L6.52482 14.8713C6.16649 14.4023 6.07539 13.78 6.28795 13.248C6.71613 12.1688 7.92473 10.0284 11.0738 7.67764C14.1742 5.36294 16.6097 4.77976 17.797 4.65651C18.3709 4.59639 18.954 4.8519 19.3154 5.32687L19.6038 5.70564C19.7891 5.94613 20.1596 5.92208 20.3114 5.66055L22.9685 1.0612C23.2813 0.523111 22.7863 -0.123202 22.179 0.024097L22.182 0.0210909Z" fill="black"/>
<path d="M4.77566 25.6691L4.19869 22.5427C4.17136 22.3413 3.99827 22.188 3.79177 22.188C3.58528 22.188 3.41219 22.3383 3.38486 22.5427L2.80788 25.6691C2.72893 26.2583 3.19051 26.7783 3.79177 26.7783C4.39 26.7783 4.85158 26.2553 4.77566 25.6691Z" fill="black"/>
<path d="M10.3116 15.749C10.9645 14.2309 11.8937 12.8872 13.0689 11.7599C14.241 10.6356 15.6197 9.7488 17.1715 9.12353C17.9367 8.8139 18.7354 8.58844 19.5613 8.43513C19.8863 8.37501 20.0259 7.99323 19.8134 7.74373L18.4955 6.18055C18.4044 6.06031 18.2616 5.98816 18.1189 5.98816C18.1037 5.98816 18.0885 5.98816 18.0734 5.98816C17.214 6.07834 14.8879 6.52926 11.9028 8.75979C8.86914 11.0264 7.82148 13.0826 7.51478 13.8642C7.45708 14.0115 7.48137 14.1888 7.58462 14.3241L9.3459 16.4494C9.55847 16.7079 9.97146 16.6328 10.0838 16.3201C10.1537 16.1278 10.2296 15.9384 10.3085 15.749H10.3116Z" fill="black"/>
<path d="M22.4492 27.8967C23.6123 27.8967 24.6478 27.7343 25.5527 27.4067C26.0598 27.2233 26.4941 27.0399 26.8494 26.8596C27.2502 26.6552 27.7391 26.8115 27.9426 27.2113L29.0328 29.3576C29.221 29.7304 29.0935 30.1873 28.7321 30.4038C28.222 30.7074 27.5387 31.011 26.6854 31.3206C25.4282 31.7746 23.9251 32 22.179 32C20.5452 32 19.0178 31.7144 17.5996 31.1433C16.1785 30.5721 14.9334 29.7755 13.8584 28.7504C12.7834 27.7253 11.9453 26.5259 11.341 25.1461C10.7367 23.7663 10.4361 22.2753 10.4361 20.67C10.4361 19.0647 10.7367 17.5677 11.3349 16.1759C11.9332 14.787 12.7682 13.5756 13.8432 12.5475C14.9182 11.5164 16.1663 10.7138 17.5935 10.1396C19.0208 9.56544 20.5482 9.27686 22.182 9.27686C23.9281 9.27686 25.4282 9.50532 26.6884 9.95623C27.5417 10.2629 28.225 10.5695 28.7352 10.8731C29.0965 11.0865 29.2241 11.5435 29.0358 11.9192L27.9456 14.0656C27.7422 14.4654 27.2533 14.6217 26.8524 14.4173C26.4971 14.2369 26.0629 14.0536 25.5558 13.8702C24.6508 13.5425 23.6153 13.3802 22.4523 13.3802C21.2892 13.3802 20.2112 13.5696 19.288 13.9453C18.3649 14.3211 17.5814 14.8442 16.9376 15.5145C16.2938 16.1849 15.8049 16.9575 15.4709 17.8322C15.1338 18.707 14.9668 19.6359 14.9668 20.6219C14.9668 21.6079 15.1338 22.5578 15.4709 23.4386C15.8049 24.3194 16.2969 25.095 16.9376 25.7653C17.5814 26.4357 18.3649 26.9588 19.288 27.3345C20.2112 27.7103 21.2649 27.8997 22.4523 27.8997L22.4492 27.8967Z" fill="black"/>
<path d="M36.0384 31.6002H33.3783C32.9319 31.6002 32.5705 31.2425 32.5705 30.8006V9.54743C32.5705 9.10553 32.9319 8.7478 33.3783 8.7478H36.0384C36.4848 8.7478 36.8462 9.10553 36.8462 9.54743V30.8006C36.8462 31.2425 36.4848 31.6002 36.0384 31.6002Z" fill="black"/>
<path d="M52.1177 31.6002C51.6713 31.6002 51.3099 31.2425 51.3099 30.8006V29.2254C51.2097 29.4689 50.9516 29.8116 50.5386 30.2565C50.1256 30.6984 49.5669 31.1012 48.8684 31.4619C48.17 31.8227 47.3501 32.003 46.4117 32.003C45.0908 32.003 43.9216 31.6904 42.9044 31.0651C41.8871 30.4399 41.0884 29.5831 40.5145 28.4919C39.9375 27.4007 39.649 26.1682 39.649 24.7974C39.649 23.4266 39.9375 22.1941 40.5145 21.1029C41.0914 20.0117 41.8871 19.1519 42.9044 18.5207C43.9216 17.8894 45.0908 17.5737 46.4117 17.5737C47.3288 17.5737 48.1244 17.727 48.8016 18.0307C49.4788 18.3343 50.0254 18.689 50.4445 19.0948C50.8635 19.4976 51.1338 19.8614 51.2583 20.183V18.7762C51.2583 18.3343 51.6197 17.9765 52.066 17.9765H54.6776C55.124 17.9765 55.4854 18.3343 55.4854 18.7762V30.8096C55.4854 31.2515 55.124 31.6092 54.6776 31.6092H52.1177V31.6002ZM43.8275 24.7914C43.8275 25.5549 44.0006 26.2283 44.3468 26.8085C44.693 27.3887 45.1515 27.8426 45.7224 28.1612C46.2933 28.4829 46.9128 28.6422 47.5839 28.6422C48.2884 28.6422 48.914 28.4799 49.4636 28.1522C50.0102 27.8246 50.4445 27.3706 50.7633 26.7905C51.0822 26.2103 51.2401 25.5429 51.2401 24.7884C51.2401 24.0339 51.0791 23.3695 50.7633 22.7863C50.4445 22.2061 50.0102 21.7492 49.4636 21.4155C48.914 21.0819 48.2884 20.9165 47.5839 20.9165C46.8794 20.9165 46.2933 21.0819 45.7224 21.4065C45.1515 21.7342 44.693 22.1881 44.3468 22.7683C44.0006 23.3485 43.8275 24.0218 43.8275 24.7854V24.7914Z" fill="black"/>
<path d="M64.7807 17.5676C65.6097 17.5676 66.375 17.6428 67.0795 17.7931C67.784 17.9434 68.3792 18.1117 68.865 18.3011C68.9197 18.3222 68.9744 18.3432 69.0229 18.3642C69.4754 18.5476 69.6576 19.0797 69.4147 19.5006L68.7739 20.6158C68.5644 20.9826 68.1059 21.1299 67.7232 20.9435C67.5623 20.8653 67.3771 20.7812 67.1675 20.694C66.5906 20.4505 65.9498 20.3272 65.2453 20.3272C64.6076 20.3272 64.0701 20.4355 63.6359 20.6519C63.1986 20.8683 62.9799 21.193 62.9799 21.6229C62.9799 22.0527 63.2138 22.3984 63.6844 22.654C64.1551 22.9095 64.808 23.1289 65.6492 23.3183C66.3537 23.4626 67.0461 23.682 67.7293 23.9736C68.4126 24.2682 68.9774 24.6891 69.4238 25.2362C69.8702 25.7833 70.0949 26.5138 70.0949 27.4216C70.0949 28.3295 69.9006 29.063 69.5149 29.6552C69.1292 30.2474 68.616 30.7163 67.9783 31.059C67.3406 31.4017 66.6422 31.6452 65.88 31.7895C65.1178 31.9338 64.3647 32.006 63.6146 32.006C62.6429 32.006 61.7865 31.9158 61.0486 31.7324C60.3107 31.549 59.7033 31.3386 59.2296 31.1011C59.099 31.035 58.9806 30.9749 58.8713 30.9147C58.4887 30.7073 58.349 30.2354 58.5494 29.8506L59.26 28.4738C59.4695 28.068 59.9736 27.9177 60.3744 28.1401C60.587 28.2573 60.833 28.3806 61.1124 28.5099C61.7774 28.8135 62.4971 28.9668 63.2684 28.9668C64.0397 28.9668 64.7078 28.8285 65.1724 28.5519C65.637 28.2754 65.8678 27.9056 65.8678 27.4397C65.8678 27.097 65.7555 26.8174 65.5338 26.601C65.3091 26.3845 65.0024 26.2042 64.6106 26.0629C64.2189 25.9186 63.7604 25.7923 63.235 25.6811C62.7552 25.5819 62.2633 25.4346 61.7592 25.2422C61.2551 25.0498 60.7844 24.7913 60.3502 24.4696C59.9159 24.148 59.5606 23.7482 59.2934 23.2642C59.0262 22.7802 58.8895 22.203 58.8895 21.5297C58.8895 20.6669 59.1689 19.9425 59.7276 19.3623C60.2864 18.7821 61.0152 18.3372 61.908 18.0336C62.8038 17.73 63.7604 17.5766 64.7777 17.5766L64.7807 17.5676Z" fill="black"/>
<path d="M78.8588 17.5676C79.6878 17.5676 80.453 17.6428 81.1576 17.7931C81.8621 17.9434 82.4573 18.1117 82.9431 18.3011C82.9978 18.3222 83.0525 18.3432 83.101 18.3642C83.5535 18.5476 83.7357 19.0797 83.4928 19.5006L82.852 20.6158C82.6425 20.9826 82.184 21.1299 81.8013 20.9435C81.6404 20.8653 81.4552 20.7812 81.2456 20.694C80.6686 20.4505 80.0279 20.3272 79.3234 20.3272C78.6857 20.3272 78.1482 20.4355 77.7139 20.6519C77.2767 20.8683 77.058 21.193 77.058 21.6229C77.058 22.0527 77.2918 22.3984 77.7625 22.654C78.2332 22.9095 78.8861 23.1289 79.7273 23.3183C80.4318 23.4626 81.1242 23.682 81.8074 23.9736C82.4907 24.2682 83.0555 24.6891 83.5019 25.2362C83.9483 25.7833 84.173 26.5138 84.173 27.4216C84.173 28.3295 83.9786 29.063 83.593 29.6552C83.2073 30.2474 82.6941 30.7163 82.0564 31.059C81.4187 31.4017 80.7203 31.6452 79.9581 31.7895C79.1959 31.9338 78.4428 32.006 77.6927 32.006C76.7209 32.006 75.8646 31.9158 75.1267 31.7324C74.3888 31.549 73.7814 31.3386 73.3077 31.1011C73.1771 31.035 73.0587 30.9749 72.9494 30.9147C72.5668 30.7073 72.4271 30.2354 72.6275 29.8506L73.3381 28.4738C73.5476 28.068 74.0517 27.9177 74.4525 28.1401C74.6651 28.2573 74.9111 28.3806 75.1905 28.5099C75.8555 28.8135 76.5752 28.9668 77.3465 28.9668C78.1178 28.9668 78.7859 28.8285 79.2505 28.5519C79.7151 28.2754 79.9459 27.9056 79.9459 27.4397C79.9459 27.097 79.8336 26.8174 79.6119 26.601C79.3872 26.3845 79.0805 26.2042 78.6887 26.0629C78.297 25.9186 77.8385 25.7923 77.3131 25.6811C76.8333 25.5819 76.3414 25.4346 75.8373 25.2422C75.3332 25.0498 74.8625 24.7913 74.4282 24.4696C73.994 24.148 73.6387 23.7482 73.3715 23.2642C73.1043 22.7802 72.9676 22.203 72.9676 21.5297C72.9676 20.6669 73.247 19.9425 73.8057 19.3623C74.3645 18.7821 75.0933 18.3372 75.9861 18.0336C76.8819 17.73 77.8385 17.5766 78.8557 17.5766L78.8588 17.5676Z" fill="black"/>
<path d="M109.396 10.4763V30.7975C109.396 31.2394 109.034 31.5972 108.588 31.5972H106.028C105.582 31.5972 105.22 31.2394 105.22 30.7975V17.5887C105.22 17.5707 105.22 17.5556 105.22 17.5376L105.421 14.3722L104.677 17.9374C104.668 17.9735 104.659 18.0096 104.646 18.0456L100.51 29.5019C100.395 29.8206 100.091 30.034 99.7482 30.034H96.7631C96.42 30.034 96.1163 29.8206 96.0009 29.5019L91.8832 18.0456C91.871 18.0096 91.8589 17.9735 91.8528 17.9344L91.127 14.3692L91.3092 17.5346C91.3092 17.5496 91.3092 17.5647 91.3092 17.5797V30.7915C91.3092 31.2334 90.9479 31.5911 90.5015 31.5911H87.9264C87.48 31.5911 87.1186 31.2334 87.1186 30.7915V10.4763C87.1186 10.0344 87.48 9.67664 87.9264 9.67664H92.3326C92.6849 9.67664 92.9946 9.90209 93.1039 10.2328L97.9748 25.2543C97.9869 25.2873 97.996 25.3234 98.0021 25.3595L98.2602 26.8024L98.5183 25.3595C98.5244 25.3234 98.5335 25.2873 98.5457 25.2543L103.432 10.2328C103.538 9.90209 103.851 9.67664 104.203 9.67664H108.594C109.04 9.67664 109.402 10.0344 109.402 10.4763H109.396Z" fill="black"/>
<path d="M125.29 31.6002C124.843 31.6002 124.482 31.2425 124.482 30.8006V29.2254C124.382 29.4689 124.124 29.8116 123.711 30.2565C123.298 30.6984 122.739 31.1012 122.041 31.4619C121.342 31.8227 120.522 32.003 119.584 32.003C118.263 32.003 117.094 31.6904 116.077 31.0651C115.059 30.4399 114.261 29.5831 113.687 28.4919C113.11 27.4007 112.821 26.1682 112.821 24.7974C112.821 23.4266 113.11 22.1941 113.687 21.1029C114.264 20.0117 115.059 19.1519 116.077 18.5207C117.094 17.8894 118.263 17.5737 119.584 17.5737C120.501 17.5737 121.297 17.727 121.974 18.0307C122.651 18.3343 123.198 18.689 123.617 19.0948C124.036 19.4976 124.306 19.8614 124.43 20.183V18.7762C124.43 18.3343 124.792 17.9765 125.238 17.9765H127.85C128.296 17.9765 128.658 18.3343 128.658 18.7762V30.8096C128.658 31.2515 128.296 31.6092 127.85 31.6092H125.29V31.6002ZM116.997 24.7914C116.997 25.5549 117.17 26.2283 117.516 26.8085C117.862 27.3887 118.321 27.8426 118.892 28.1612C119.462 28.4829 120.082 28.6422 120.753 28.6422C121.458 28.6422 122.083 28.4799 122.633 28.1522C123.179 27.8246 123.614 27.3706 123.932 26.7905C124.251 26.2103 124.409 25.5429 124.409 24.7884C124.409 24.0339 124.248 23.3695 123.932 22.7863C123.614 22.2061 123.179 21.7492 122.633 21.4155C122.083 21.0819 121.458 20.9165 120.753 20.9165C120.048 20.9165 119.462 21.0819 118.892 21.4065C118.321 21.7342 117.862 22.1881 117.516 22.7683C117.17 23.3485 116.997 24.0218 116.997 24.7854V24.7914Z" fill="black"/>
<path d="M131.797 17.9645H132.663C133.109 17.9645 133.471 17.6068 133.471 17.1649V13.1697C133.471 12.7278 133.832 12.3701 134.278 12.3701H136.887C137.333 12.3701 137.695 12.7278 137.695 13.1697V17.1649C137.695 17.6068 138.056 17.9645 138.502 17.9645H140.139C140.586 17.9645 140.947 18.3222 140.947 18.7641V20.667C140.947 21.1089 140.586 21.4666 140.139 21.4666H138.502C138.056 21.4666 137.695 21.8243 137.695 22.2662V26.3996C137.695 27.0519 137.801 27.56 138.014 27.9207C138.226 28.2814 138.56 28.4588 139.022 28.4588C139.368 28.4588 139.653 28.3897 139.878 28.2514C140.103 28.1131 140.236 28.0169 140.282 27.9598L141.791 30.9839C141.724 31.0501 141.509 31.1673 141.144 31.3326C140.78 31.498 140.315 31.6513 139.751 31.7896C139.186 31.9278 138.551 31.997 137.847 31.997C136.583 31.997 135.536 31.6332 134.71 30.9088C133.881 30.1843 133.468 29.057 133.468 27.5299V22.2692C133.468 21.8273 133.106 21.4696 132.66 21.4696H131.794C131.348 21.4696 130.987 21.1119 130.987 20.67V18.7671C130.987 18.3252 131.348 17.9675 131.794 17.9675L131.797 17.9645Z" fill="black"/>
<path d="M148.089 25.7232C147.549 25.7232 147.133 26.2493 147.315 26.7543C147.394 26.9738 147.494 27.1842 147.619 27.3826C147.919 27.8696 148.36 28.2514 148.937 28.5279C149.513 28.8045 150.209 28.9428 151.026 28.9428C151.742 28.9428 152.377 28.8556 152.93 28.6782C153.482 28.5009 153.953 28.2844 154.339 28.0319C154.43 27.9718 154.512 27.9147 154.591 27.8546C154.952 27.581 155.471 27.6832 155.727 28.053L156.592 29.3065C156.817 29.6312 156.777 30.0761 156.486 30.3406C156.255 30.548 155.994 30.7434 155.705 30.9298C155.192 31.2575 154.533 31.516 153.734 31.7114C152.936 31.9038 151.937 32.003 150.74 32.003C149.231 32.003 147.904 31.7084 146.765 31.1222C145.623 30.536 144.734 29.6883 144.09 28.582C143.446 27.4758 143.124 26.1561 143.124 24.629C143.124 23.3003 143.413 22.1009 143.99 21.0337C144.567 19.9665 145.399 19.1218 146.489 18.4996C147.579 17.8773 148.891 17.5707 150.424 17.5707C151.867 17.5707 153.118 17.8442 154.175 18.3944C155.232 18.9415 156.051 19.7441 156.632 20.7932C157.215 21.8454 157.503 23.129 157.503 24.6471C157.503 24.7342 157.503 24.9176 157.494 25.1942C157.488 25.4707 157.476 25.6481 157.451 25.7262H148.092L148.089 25.7232ZM152.45 23.1139C153.036 23.1139 153.449 22.5067 153.188 21.9866C153.188 21.9806 153.182 21.9746 153.179 21.9686C152.972 21.5598 152.647 21.2111 152.207 20.9225C151.764 20.6339 151.187 20.4896 150.47 20.4896C149.753 20.4896 149.146 20.6309 148.684 20.9135C148.22 21.196 147.874 21.5357 147.643 21.9355C147.643 21.9386 147.637 21.9446 147.637 21.9476C147.339 22.4706 147.752 23.1139 148.357 23.1139H152.45Z" fill="black"/>
</g>
<defs>
<clipPath id="clip0_8638_22731">
<rect width="157" height="32" fill="white" transform="translate(0.5)"/>
</clipPath>
</defs>
</svg>
